<svg width="324.000000" height="24.000000" viewBox="0 0 324 24" fill="none" xmlns="http://www.w3.org/2000/svg" xmlns:xlink="http://www.w3.org/1999/xlink">
	<desc>
			Created with Pixso.
	</desc>
	<defs>
		<clipPath id="clip8_10463">
			<rect id="gift-02" width="24.000000" height="24.000000" fill="white" fill-opacity="0"/>
		</clipPath>
	</defs>
	<g clip-path="url(#clip8_10463)">
		<path id="Icon" d="M12 7C12 7 13 2 16.5 2C17.16 2 17.79 2.26 18.26 2.73C18.73 3.2 19 3.83 19 4.5C19 5.16 18.73 5.79 18.26 6.26C17.79 6.73 17.16 7 16.5 7L12 7L7.5 7C6.83 7 6.2 6.73 5.73 6.26C5.26 5.79 5 5.16 5 4.5C5 3.83 5.26 3.2 5.73 2.73C6.2 2.26 6.83 2 7.5 2C11 2 12 7 12 7M12 7L12 22M2 14L22 14M22 18.79C22 19.92 22 20.48 21.78 20.9C21.59 21.28 21.28 21.59 20.9 21.78C20.48 22 19.92 22 18.79 22L5.19 22C4.07 22 3.51 22 3.09 21.78C2.71 21.59 2.4 21.28 2.21 20.9C2 20.48 2 19.92 2 18.79L2 10.2C2 9.07 2 8.51 2.21 8.09C2.4 7.71 2.71 7.4 3.09 7.21C3.51 7 4.07 7 5.19 7L18.79 7C19.92 7 20.48 7 20.9 7.21C21.28 7.4 21.59 7.71 21.78 8.09C22 8.51 22 9.07 22 10.2L22 18.79Z" stroke="#FF9549" stroke-opacity="1.000000" stroke-width="1.500000" stroke-linejoin="round"/>
	</g>
	<path id="Керамическое покрытие в подарок!" d="M320.06 6.36L321.93 6.36L321.78 14.65L320.21 14.65L320.06 6.36ZM42.11 18L44.14 18L39.19 12.11L43.92 6.57L42.01 6.57L37.24 12.11L37.24 6.57L35.51 6.57L35.51 18L37.24 18L37.24 12.2L42.11 18ZM51 9.8Q50.13 9.21 48.86 9.21Q47.79 9.21 46.97 9.66Q46.89 9.7 46.82 9.75Q46.63 9.87 46.46 10Q45.84 10.5 45.46 11.29C45.13 11.96 44.97 12.79 44.97 13.76Q44.97 15.19 45.51 16.18Q45.84 16.79 46.33 17.21Q46.63 17.47 46.99 17.66C47.63 17.99 48.37 18.16 49.21 18.16C49.82 18.16 50.34 18.11 50.78 18.01C51.22 17.91 51.65 17.77 52.09 17.58L52.09 16.17Q51.4 16.48 50.76 16.63C50.32 16.73 49.83 16.78 49.28 16.78Q48.29 16.78 47.67 16.31Q47.53 16.2 47.41 16.08C46.97 15.61 46.74 14.93 46.71 14.04L52.51 14.04L52.51 13.12Q52.51 11.49 51.72 10.48Q51.63 10.37 51.53 10.26Q51.29 10 51 9.8ZM61.43 10.33C60.79 9.58 59.96 9.21 58.92 9.21Q57.92 9.21 57.3 9.6C56.89 9.85 56.56 10.16 56.31 10.52L56.24 10.52L55.99 9.37L54.62 9.37L54.62 21.83L56.31 21.83L56.31 18.32C56.31 18.11 56.3 17.88 56.28 17.62Q56.25 17.23 56.2 16.94L56.31 16.94Q56.68 17.44 57.3 17.8C57.71 18.04 58.25 18.16 58.91 18.16C59.94 18.16 60.78 17.77 61.42 17.01Q62.38 15.87 62.38 13.67C62.38 12.19 62.06 11.08 61.43 10.33ZM70.3 9.92C69.77 9.45 68.96 9.21 67.88 9.21C67.31 9.21 66.76 9.28 66.23 9.43C65.7 9.57 65.23 9.75 64.83 9.96L65.37 11.19C65.74 11.01 66.13 10.86 66.54 10.73C66.95 10.6 67.37 10.54 67.8 10.54C68.33 10.54 68.73 10.67 69.02 10.93Q69.45 11.32 69.45 12.27L69.45 12.75L67.98 12.8Q65.91 12.86 64.92 13.55C64.26 14 63.93 14.67 63.93 15.55Q63.93 16.72 64.51 17.35Q64.6 17.44 64.7 17.52C65.21 17.94 65.86 18.16 66.64 18.16Q67.72 18.16 68.34 17.83C68.75 17.61 69.14 17.26 69.52 16.8L69.58 16.8L69.91 18L71.11 18L71.11 12.16Q71.11 10.73 70.4 10.01Q70.35 9.97 70.3 9.92ZM112.33 9.8Q111.46 9.21 110.19 9.21Q109.12 9.21 108.3 9.66Q108.22 9.7 108.15 9.75Q107.96 9.87 107.79 10Q107.17 10.5 106.79 11.29C106.46 11.96 106.3 12.79 106.3 13.76C106.3 14.72 106.48 15.52 106.83 16.18Q107.17 16.79 107.66 17.21Q107.96 17.47 108.32 17.66C108.96 17.99 109.7 18.16 110.54 18.16Q111.45 18.16 112.11 18.01C112.55 17.91 112.98 17.77 113.42 17.58L113.42 16.17Q112.73 16.48 112.08 16.63C111.65 16.73 111.16 16.78 110.6 16.78Q109.62 16.78 108.99 16.31Q108.86 16.2 108.74 16.08C108.3 15.61 108.07 14.93 108.04 14.04L113.83 14.04L113.83 13.12C113.83 11.91 113.51 10.96 112.86 10.26Q112.62 10 112.33 9.8ZM117.06 17.51Q118.03 18.16 119.42 18.16C119.94 18.16 120.39 18.11 120.75 18.03Q121.26 17.91 121.7 17.66Q121.73 17.64 121.76 17.63L121.76 16.16C121.45 16.32 121.11 16.46 120.74 16.57C120.37 16.68 119.95 16.73 119.47 16.73Q118.69 16.73 118.18 16.36Q117.95 16.2 117.77 15.96C117.39 15.45 117.19 14.7 117.19 13.72C117.19 11.67 117.97 10.65 119.53 10.65C119.83 10.65 120.15 10.69 120.48 10.78C120.82 10.86 121.14 10.97 121.44 11.08L121.95 9.71C121.67 9.58 121.32 9.46 120.9 9.36Q120.27 9.21 119.55 9.21C118.76 9.21 118.05 9.37 117.43 9.68Q117.17 9.82 116.93 10Q116.35 10.44 115.98 11.15C115.63 11.81 115.45 12.67 115.45 13.74C115.45 15.26 115.81 16.38 116.54 17.09Q116.78 17.33 117.06 17.51ZM138.86 16.99C139.6 16.21 139.97 15.1 139.97 13.67C139.97 12.71 139.79 11.9 139.44 11.25C139.1 10.58 138.62 10.08 138.02 9.73Q137.96 9.7 137.91 9.68Q137.05 9.21 135.93 9.21Q134.5 9.21 133.53 9.88Q133.22 10.09 132.95 10.37C132.23 11.14 131.87 12.25 131.87 13.67C131.87 14.63 132.04 15.43 132.39 16.1C132.73 16.77 133.21 17.28 133.81 17.63Q133.92 17.69 134.03 17.75Q134.85 18.16 135.88 18.16Q137.26 18.16 138.22 17.53Q138.57 17.3 138.86 16.99ZM147.64 9.8Q146.77 9.21 145.5 9.21Q144.43 9.21 143.61 9.66Q143.53 9.7 143.46 9.75Q143.27 9.87 143.1 10Q142.48 10.5 142.1 11.29C141.77 11.96 141.61 12.79 141.61 13.76C141.61 14.72 141.79 15.52 142.15 16.18Q142.48 16.79 142.97 17.21Q143.27 17.47 143.63 17.66C144.27 17.99 145.01 18.16 145.85 18.16Q146.76 18.16 147.42 18.01C147.86 17.91 148.3 17.77 148.73 17.58L148.73 16.17Q148.05 16.48 147.4 16.63C146.96 16.73 146.47 16.78 145.92 16.78Q144.93 16.78 144.31 16.31Q144.17 16.2 144.05 16.08C143.61 15.61 143.38 14.93 143.35 14.04L149.15 14.04L149.15 13.12C149.15 11.91 148.82 10.96 148.17 10.26Q147.93 10 147.64 9.8ZM172.11 16.99C172.84 16.21 173.21 15.1 173.21 13.67C173.21 12.71 173.04 11.9 172.69 11.25C172.34 10.58 171.87 10.08 171.26 9.73Q171.21 9.7 171.16 9.68Q170.29 9.21 169.18 9.21Q167.74 9.21 166.77 9.88Q166.46 10.09 166.2 10.37C165.48 11.14 165.11 12.25 165.11 13.67C165.11 14.63 165.29 15.43 165.63 16.1C165.98 16.77 166.45 17.28 167.06 17.63Q167.16 17.69 167.27 17.75Q168.1 18.16 169.13 18.16Q170.5 18.16 171.47 17.53Q171.81 17.3 172.11 16.99ZM191.06 10.33C190.42 9.58 189.59 9.21 188.55 9.21C187.88 9.21 187.34 9.34 186.93 9.6C186.52 9.85 186.19 10.16 185.95 10.52L185.87 10.52L185.63 9.37L184.25 9.37L184.25 21.83L185.95 21.83L185.95 18.32C185.95 18.11 185.94 17.88 185.91 17.62Q185.88 17.23 185.83 16.94L185.95 16.94Q186.31 17.44 186.93 17.8C187.34 18.04 187.88 18.16 188.54 18.16C189.57 18.16 190.41 17.77 191.05 17.01Q192.01 15.87 192.01 13.67C192.01 12.19 191.69 11.08 191.06 10.33ZM231.13 9.8Q230.26 9.21 228.98 9.21Q227.92 9.21 227.1 9.66Q227.02 9.7 226.95 9.75Q226.76 9.87 226.58 10Q225.97 10.5 225.59 11.29C225.26 11.96 225.1 12.79 225.1 13.76C225.1 14.72 225.28 15.52 225.63 16.18Q225.97 16.79 226.46 17.21Q226.76 17.47 227.12 17.66C227.76 17.99 228.5 18.16 229.34 18.16Q230.25 18.16 230.91 18.01C231.34 17.91 231.78 17.77 232.22 17.58L232.22 16.17Q231.53 16.48 230.88 16.63C230.45 16.73 229.96 16.78 229.4 16.78Q228.42 16.78 227.79 16.31Q227.66 16.2 227.54 16.08C227.1 15.61 226.86 14.93 226.84 14.04L232.63 14.04L232.63 13.12C232.63 11.91 232.31 10.96 231.66 10.26Q231.41 10 231.13 9.8ZM269.3 16.99C270.04 16.21 270.41 15.1 270.41 13.67C270.41 12.71 270.23 11.9 269.89 11.25C269.54 10.58 269.06 10.08 268.46 9.73Q268.41 9.7 268.35 9.68Q267.49 9.21 266.37 9.21Q264.94 9.21 263.97 9.88Q263.66 10.09 263.4 10.37C262.67 11.14 262.31 12.25 262.31 13.67C262.31 14.63 262.48 15.43 262.83 16.1C263.18 16.77 263.65 17.28 264.25 17.63Q264.36 17.69 264.47 17.75Q265.3 18.16 266.33 18.16Q267.7 18.16 268.66 17.53Q269.01 17.3 269.3 16.99ZM288 9.92C287.46 9.45 286.65 9.21 285.57 9.21C285 9.21 284.45 9.28 283.92 9.43C283.39 9.57 282.92 9.75 282.52 9.96L283.06 11.19C283.44 11.01 283.82 10.86 284.23 10.73C284.64 10.6 285.06 10.54 285.5 10.54C286.02 10.54 286.42 10.67 286.71 10.93Q287.14 11.32 287.14 12.27L287.14 12.75L285.67 12.8Q283.61 12.86 282.61 13.55C281.95 14 281.62 14.67 281.62 15.55C281.62 16.44 281.88 17.1 282.39 17.52C282.9 17.94 283.55 18.16 284.33 18.16Q285.42 18.16 286.03 17.83C286.44 17.61 286.83 17.26 287.21 16.8L287.27 16.8L287.61 18L288.81 18L288.81 12.16Q288.81 10.73 288.09 10.01Q288.04 9.97 288 9.92ZM298.22 10.33C297.59 9.58 296.75 9.21 295.72 9.21C295.05 9.21 294.51 9.34 294.1 9.6C293.68 9.85 293.35 10.16 293.11 10.52L293.03 10.52L292.79 9.37L291.42 9.37L291.42 21.83L293.11 21.83L293.11 18.32C293.11 18.11 293.1 17.88 293.08 17.62Q293.05 17.23 293 16.94L293.11 16.94Q293.48 17.44 294.1 17.8C294.51 18.04 295.04 18.16 295.7 18.16C296.74 18.16 297.57 17.77 298.22 17.01Q299.18 15.87 299.18 13.67C299.18 12.19 298.86 11.08 298.22 10.33ZM307.83 16.99C308.57 16.21 308.94 15.1 308.94 13.67C308.94 12.71 308.76 11.9 308.41 11.25C308.07 10.58 307.59 10.08 306.99 9.73Q306.94 9.7 306.88 9.68Q306.02 9.21 304.9 9.21Q303.47 9.21 302.5 9.88Q302.19 10.09 301.93 10.37C301.2 11.14 300.84 12.25 300.84 13.67C300.84 14.63 301.01 15.43 301.36 16.1C301.71 16.77 302.18 17.28 302.78 17.63Q302.89 17.69 303 17.75Q303.82 18.16 304.85 18.16Q306.23 18.16 307.19 17.53Q307.54 17.3 307.83 16.99ZM83.45 18L83.45 9.37L81.18 9.37L78.59 15.98L76.04 9.37L73.72 9.37L73.72 18L75.27 18L75.27 12.92C75.27 12.28 75.25 11.7 75.2 11.16L75.26 11.16L77.9 18L79.26 18L81.95 11.16L82 11.16C81.96 11.44 81.94 11.73 81.93 12.01C81.92 12.3 81.91 12.59 81.91 12.87L81.91 18L83.45 18ZM87.71 14.76C87.73 14.48 87.74 14.25 87.74 14.07L87.74 9.37L86.12 9.37L86.12 18L88.2 18L92.6 11.13C92.59 11.28 92.58 11.5 92.56 11.78C92.55 12.06 92.53 12.35 92.52 12.65C92.51 12.95 92.51 13.2 92.51 13.4L92.51 18L94.11 18L94.11 9.37L92.04 9.37L87.61 16.25C87.63 16.11 87.65 15.9 87.67 15.62Q87.69 15.19 87.71 14.76ZM99.74 13.88C98.76 13.88 98.27 13.43 98.27 12.52L98.27 9.37L96.57 9.37L96.57 12.6Q96.57 13.56 97.03 14.19Q97.16 14.37 97.32 14.52C97.82 14.98 98.52 15.21 99.4 15.21C100.04 15.21 100.6 15.13 101.06 14.96C101.54 14.78 102 14.55 102.44 14.27L102.44 18L104.14 18L104.14 9.37L102.44 9.37L102.44 13.08C102.01 13.33 101.57 13.52 101.15 13.67C100.72 13.81 100.25 13.88 99.74 13.88ZM130.91 9.37L129.05 9.37L125.48 13.56L125.48 9.37L123.79 9.37L123.79 18L125.48 18L125.48 13.63L129.26 18L131.21 18L127.31 13.51L130.91 9.37ZM162.96 18L162.96 9.37L155.5 9.37L155.5 18L157.19 18L157.19 10.75L161.26 10.75L161.26 18L162.96 18ZM182.48 9.37L180.62 9.37L177.05 13.56L177.05 9.37L175.35 9.37L175.35 18L177.05 18L177.05 13.63L180.83 18L182.78 18L178.87 13.51L182.48 9.37ZM194.17 9.37L194.17 18L197.75 18C198.98 18 199.87 17.75 200.41 17.27C200.95 16.78 201.22 16.13 201.22 15.32C201.22 14.5 200.95 13.88 200.39 13.47C199.83 13.05 198.95 12.84 197.77 12.84L195.87 12.84L195.87 9.37L194.17 9.37ZM202.6 9.37L202.6 18L204.3 18L204.3 9.37L202.6 9.37ZM210.44 10.73L213.26 10.73L213.26 9.37L205.96 9.37L205.96 10.73L208.76 10.73L208.76 18L210.44 18L210.44 10.73ZM216.53 14.76C216.55 14.48 216.56 14.25 216.56 14.07L216.56 9.37L214.94 9.37L214.94 18L217.02 18L221.42 11.13C221.41 11.28 221.39 11.5 221.38 11.78C221.36 12.06 221.35 12.35 221.34 12.65C221.33 12.95 221.32 13.2 221.32 13.4L221.32 18L222.92 18L222.92 9.37L220.86 9.37L216.43 16.25C216.45 16.11 216.47 15.9 216.48 15.62Q216.5 15.19 216.53 14.76ZM245.66 12.81C245.98 12.5 246.14 12.08 246.14 11.56C246.14 11.02 245.99 10.59 245.7 10.27C245.4 9.95 245.01 9.72 244.5 9.58C244 9.44 243.44 9.37 242.81 9.37L238.98 9.37L238.98 18L242.81 18C244.09 18 245.01 17.76 245.57 17.28Q246 16.91 246.21 16.44Q246.41 15.99 246.41 15.45Q246.41 14.77 246.08 14.33Q245.97 14.19 245.82 14.07C245.44 13.75 244.97 13.56 244.41 13.48L244.41 13.42Q245.18 13.28 245.65 12.83Q245.66 12.82 245.66 12.81ZM260.15 18L260.15 9.37L252.7 9.37L252.7 18L254.39 18L254.39 10.75L258.46 10.75L258.46 18L260.15 18ZM279.35 16.65L279.35 9.37L274.36 9.37C274.32 10.68 274.12 11.98 273.77 13.26C273.41 14.54 272.89 15.67 272.2 16.65L271.51 16.65L271.51 21.02L273.08 21.02L273.08 18L279.03 18L279.03 21.02L280.61 21.02L280.61 16.65L279.35 16.65ZM318.2 9.37L316.35 9.37L312.77 13.56L312.77 9.37L311.08 9.37L311.08 18L312.77 18L312.77 13.63L316.55 18L318.51 18L314.6 13.51L318.2 9.37ZM47.79 10.79Q48.24 10.52 48.86 10.52Q49.62 10.52 50.08 10.9Q50.21 11.01 50.32 11.16C50.64 11.58 50.8 12.12 50.81 12.8L46.75 12.8Q46.84 11.71 47.39 11.12Q47.57 10.92 47.79 10.79ZM109.12 10.79Q109.57 10.52 110.19 10.52Q110.95 10.52 111.4 10.9Q111.54 11.01 111.65 11.16C111.97 11.58 112.13 12.12 112.14 12.8L108.08 12.8Q108.17 11.71 108.72 11.12Q108.9 10.92 109.12 10.79ZM144.43 10.79Q144.88 10.52 145.5 10.52Q146.26 10.52 146.72 10.9Q146.85 11.01 146.96 11.16C147.28 11.58 147.44 12.12 147.45 12.8L143.39 12.8Q143.48 11.71 144.03 11.12Q144.21 10.92 144.43 10.79ZM227.92 10.79Q228.37 10.52 228.98 10.52Q229.75 10.52 230.2 10.9Q230.34 11.01 230.45 11.16C230.76 11.58 230.93 12.12 230.94 12.8L226.88 12.8Q226.97 11.71 227.52 11.12Q227.7 10.92 227.92 10.79ZM56.83 11.3C57.16 10.84 57.72 10.6 58.52 10.6Q59.21 10.6 59.66 10.93Q59.93 11.12 60.12 11.42C60.46 11.96 60.63 12.7 60.63 13.64Q60.63 15.03 60.12 15.9C59.78 16.48 59.26 16.76 58.56 16.76Q57.54 16.76 57.03 16.26Q56.89 16.12 56.79 15.96Q56.31 15.15 56.31 13.66L56.31 13.4C56.32 12.46 56.5 11.76 56.83 11.3ZM186.46 11.3C186.79 10.84 187.35 10.6 188.15 10.6C188.88 10.6 189.41 10.88 189.75 11.42C190.1 11.96 190.27 12.7 190.27 13.64C190.27 14.57 190.1 15.32 189.75 15.9C189.41 16.48 188.89 16.76 188.19 16.76C187.33 16.76 186.75 16.5 186.43 15.96Q185.95 15.15 185.95 13.66L185.95 13.4C185.96 12.46 186.13 11.76 186.46 11.3ZM293.62 11.3C293.95 10.84 294.52 10.6 295.32 10.6C296.04 10.6 296.58 10.88 296.92 11.42C297.26 11.96 297.43 12.7 297.43 13.64C297.43 14.57 297.26 15.32 296.92 15.9C296.58 16.48 296.06 16.76 295.35 16.76C294.5 16.76 293.91 16.5 293.59 15.96Q293.11 15.15 293.11 13.66L293.11 13.4C293.12 12.46 293.29 11.76 293.62 11.3ZM134.16 15.95C133.79 15.4 133.61 14.65 133.61 13.67C133.61 12.69 133.79 11.94 134.15 11.41Q134.29 11.21 134.48 11.06Q135.01 10.62 135.9 10.62Q136.78 10.62 137.32 11.05Q137.51 11.21 137.66 11.41Q138.22 12.2 138.22 13.67C138.22 14.65 138.03 15.4 137.66 15.95C137.3 16.49 136.71 16.76 135.91 16.76C135.11 16.76 134.53 16.49 134.16 15.95ZM167.41 15.95C167.04 15.4 166.86 14.65 166.86 13.67C166.86 12.69 167.04 11.94 167.4 11.41Q167.54 11.21 167.72 11.06Q168.26 10.62 169.15 10.62Q170.03 10.62 170.57 11.05Q170.76 11.21 170.9 11.41Q171.47 12.2 171.47 13.67C171.47 14.65 171.28 15.4 170.91 15.95C170.54 16.49 169.96 16.76 169.16 16.76C168.36 16.76 167.78 16.49 167.41 15.95ZM264.6 15.95C264.24 15.4 264.05 14.65 264.05 13.67C264.05 12.69 264.23 11.94 264.6 11.41Q264.74 11.21 264.92 11.06Q265.45 10.62 266.34 10.62Q267.23 10.62 267.76 11.05Q267.95 11.21 268.1 11.41Q268.66 12.2 268.66 13.67C268.66 14.65 268.48 15.4 268.11 15.95C267.74 16.49 267.16 16.76 266.36 16.76C265.56 16.76 264.97 16.49 264.6 15.95ZM303.13 15.95C302.76 15.4 302.58 14.65 302.58 13.67C302.58 12.69 302.76 11.94 303.12 11.41Q303.26 11.21 303.45 11.06Q303.98 10.62 304.87 10.62Q305.76 10.62 306.29 11.05Q306.48 11.21 306.63 11.41Q307.19 12.2 307.19 13.67C307.19 14.65 307.01 15.4 306.64 15.95C306.27 16.49 305.69 16.76 304.89 16.76C304.09 16.76 303.5 16.49 303.13 15.95ZM244.25 11.18Q244.41 11.42 244.41 11.76C244.41 12.49 243.76 12.86 242.46 12.86L240.68 12.86L240.68 10.68L242.71 10.68Q243.59 10.68 244 10.95Q244.15 11.05 244.25 11.18ZM275.49 12.82Q275.74 11.74 275.83 10.68L277.69 10.68L277.69 16.65L273.98 16.65C274.32 16.14 274.62 15.55 274.87 14.89C275.13 14.23 275.33 13.54 275.49 12.82ZM66.24 14.37C66.62 14.09 67.3 13.93 68.28 13.88L69.43 13.85L69.43 14.6C69.43 15.35 69.21 15.91 68.77 16.28C68.33 16.66 67.77 16.84 67.11 16.84C66.69 16.84 66.34 16.74 66.07 16.54C65.81 16.33 65.68 16.01 65.68 15.56Q65.68 15.1 65.88 14.77Q66.02 14.54 66.24 14.37ZM283.93 14.37C284.31 14.09 284.99 13.93 285.97 13.88L287.13 13.85L287.13 14.6C287.13 15.35 286.9 15.91 286.46 16.28C286.02 16.66 285.47 16.84 284.81 16.84C284.38 16.84 284.03 16.74 283.77 16.54C283.5 16.33 283.37 16.01 283.37 15.56C283.37 15.05 283.56 14.66 283.93 14.37ZM199.01 16.42Q198.47 16.71 197.63 16.71L195.87 16.71L195.87 14.16L197.63 14.16C198.24 14.16 198.72 14.25 199.05 14.43C199.38 14.61 199.55 14.93 199.55 15.39C199.55 15.88 199.37 16.22 199.01 16.42ZM244.13 14.45C244.48 14.65 244.65 14.97 244.65 15.42Q244.65 15.87 244.43 16.16Q244.31 16.32 244.12 16.42C243.77 16.62 243.28 16.71 242.65 16.71L240.68 16.71L240.68 14.16L242.62 14.16Q243.61 14.16 244.13 14.45ZM322.13 16.97C322.13 17.6 321.61 18.1 321 18.1C320.37 18.1 319.86 17.6 319.86 16.97C319.86 16.35 320.37 15.83 321 15.83C321.61 15.83 322.13 16.35 322.13 16.97Z" fill="#FFFFFF" fill-opacity="1.000000" fill-rule="evenodd"/>
</svg>
