<svg width="20.000000" height="20.000000" viewBox="0 0 20 20" fill="none" xmlns="http://www.w3.org/2000/svg" xmlns:xlink="http://www.w3.org/1999/xlink">
	<desc>
			Created with Pixso.
	</desc>
	<defs>
		<clipPath id="clip5_284">
			<rect id="speedometer-04" rx="-0.500000" width="19.000000" height="19.000000" transform="translate(0.500000 0.500000)" fill="white" fill-opacity="0"/>
		</clipPath>
	</defs>
	<g clip-path="url(#clip5_284)">
		<path id="Icon" d="M9.99 18.33C5.39 18.33 1.66 14.6 1.66 10C1.66 5.39 5.39 1.66 9.99 1.66C14.6 1.66 18.33 5.39 18.33 10C18.33 14.6 14.6 18.33 9.99 18.33ZM15.69 8.74C15.78 9.15 15.83 9.57 15.83 10C15.83 11.23 15.44 12.38 14.78 13.33M5.21 13.33C4.55 12.38 4.16 11.23 4.16 10C4.16 6.77 6.77 4.16 9.99 4.16C10.35 4.16 10.69 4.19 11.03 4.25M13.74 6.25L9.99 10M9.99 10.83C9.53 10.83 9.16 10.46 9.16 10C9.16 9.53 9.53 9.16 9.99 9.16C10.46 9.16 10.83 9.53 10.83 10C10.83 10.46 10.46 10.83 9.99 10.83Z" stroke="#FF9549" stroke-opacity="1.000000" stroke-width="1.000000" stroke-linejoin="round"/>
	</g>
</svg>
