<svg width="54.000000" height="69.000000" viewBox="0 0 54 69" fill="none" xmlns="http://www.w3.org/2000/svg" xmlns:xlink="http://www.w3.org/1999/xlink">
	<desc>
			Created with Pixso.
	</desc>
	<defs>
		<clipPath id="clip2_2962">
			<rect id="logo.445e7b59 1" width="54.000000" height="69.000000" fill="white" fill-opacity="0"/>
		</clipPath>
	</defs>
	<rect id="logo.445e7b59 1" width="54.000000" height="69.000000" fill="#FFFFFF" fill-opacity="0"/>
	<g clip-path="url(#clip2_2962)">
		<mask id="mask2_2969" mask-type="alpha" maskUnits="userSpaceOnUse" x="0.000000" y="0.000000" width="54.000000" height="69.000000">
			<path id="Vector" d="M0 0L54 0L54 69L0 69L0 0Z" fill="#000000" fill-opacity="1.000000" fill-rule="evenodd"/>
		</mask>
		<g mask="url(#mask2_2969)">
			<path id="Vector" d="M52.94 2.7C52.54 1.85 51.65 1.25 49.68 1.05C40.56 0.16 36.29 0 26.79 0L26.78 0C17.28 0 13.14 0.15 3.87 1.05C1.89 1.25 1.01 1.85 0.6 2.7C0.3 3.33 0.26 4.1 0.22 4.93C-0.28 15.15 0.03 42.97 1.41 58.62C1.57 60.43 1.66 62.35 1.92 63.95C2.33 66.35 3.35 67.04 5.3 67.43C8.69 68.13 15.36 68.68 26.77 68.68C38.17 68.68 44.86 68.13 48.26 67.44C50.2 67.04 51.22 66.36 51.63 63.95C51.9 62.36 51.98 60.44 52.14 58.63C53.53 42.98 53.83 15.16 53.33 4.93C53.29 4.1 53.25 3.33 52.94 2.7ZM2.61 6.06C2.67 4.8 2.48 3.91 3.51 3.22L18.55 5.89C19.07 5.6 26.55 5.59 26.78 5.59C27.01 5.59 34.5 5.6 35.01 5.89L49.93 3.2C50.97 3.88 50.79 4.8 50.85 6.06C51.01 9.22 51.08 14.13 51.07 19.84L51.07 19.94L39.13 20.76C36.16 21.03 35.82 21.78 35.81 23.12C35.81 23.12 35.67 32.33 35.58 35.56C35.47 40.16 35.07 47.01 35.06 47.24C35.03 48.34 34.27 49.14 33.21 49.23C33.21 49.23 29.4 49.37 26.79 49.34C26.77 49.34 26.76 49.34 26.73 49.34C26.71 49.34 26.7 49.34 26.68 49.34C24.07 49.36 20.26 49.23 20.26 49.23C19.2 49.14 18.44 48.34 18.41 47.24C18.4 47.01 18 40.16 17.89 35.56C17.8 32.33 17.66 23.12 17.66 23.12C17.66 21.78 17.31 21.03 14.34 20.76L2.39 19.83C2.38 14.12 2.46 9.22 2.61 6.06ZM26.73 51.36L26.79 51.36L32.74 51.3C37.38 51.33 36.92 50.94 37.54 46.92C37.69 45.92 39.84 23.33 39.84 23.33C39.92 22.81 40.21 22.58 40.63 22.53L50.73 21.23C50.92 21.2 51.08 21.35 51.08 21.54C51.08 21.54 50.25 58.93 49.18 63.47C48.95 64.45 48.69 64.68 47.83 64.88C47.83 64.88 42.74 66.07 26.74 66.08C10.73 66.06 5.64 64.88 5.64 64.88C4.78 64.68 4.52 64.45 4.29 63.47C3.22 58.93 2.39 21.54 2.39 21.54C2.39 21.36 2.55 21.21 2.74 21.23L12.84 22.53C13.26 22.59 13.55 22.81 13.63 23.33C13.63 23.33 15.78 45.92 15.93 46.92C16.55 50.93 16.09 51.33 20.73 51.3L26.68 51.36L26.73 51.36Z" fill="#FFFFFF" fill-opacity="1.000000" fill-rule="nonzero"/>
			<path id="Vector" d="M22.31 55.58C22.29 55.55 22.25 55.53 22.22 55.53L20.59 55.53C20.55 55.53 20.52 55.55 20.49 55.58L17.12 60.51C17.09 60.55 17.12 60.6 17.16 60.6L18.74 60.6C18.78 60.6 18.81 60.58 18.83 60.55L19.7 59.28C19.75 59.22 19.82 59.19 19.89 59.19L22.91 59.19C22.99 59.19 23.06 59.22 23.1 59.28L23.97 60.55C23.99 60.58 24.03 60.6 24.06 60.6L25.64 60.6C25.69 60.6 25.71 60.55 25.69 60.51L22.31 55.58ZM22.28 58.39L20.53 58.39C20.44 58.39 20.39 58.29 20.44 58.22L21.31 56.94C21.36 56.87 21.45 56.87 21.49 56.94L22.37 58.22C22.42 58.29 22.37 58.39 22.28 58.39Z" fill="#FFFFFF" fill-opacity="1.000000" fill-rule="nonzero"/>
			<path id="Vector" d="M17.05 55.53L8.94 55.53C8.89 55.53 8.87 55.58 8.89 55.62L9.31 56.23C9.35 56.29 9.42 56.33 9.49 56.33L12.1 56.33C12.16 56.33 12.21 56.38 12.21 56.44L12.21 60.54C12.21 60.57 12.24 60.6 12.27 60.6L13.69 60.6C13.73 60.6 13.75 60.57 13.75 60.54L13.75 56.44C13.75 56.38 13.81 56.33 13.87 56.33L16.48 56.33C16.55 56.33 16.62 56.29 16.66 56.23L17.08 55.62C17.12 55.58 17.1 55.53 17.05 55.53Z" fill="#FFFFFF" fill-opacity="1.000000" fill-rule="nonzero"/>
			<path id="Vector" d="M35.21 55.53L33.79 55.53C33.76 55.53 33.73 55.56 33.73 55.59L33.73 59.14C33.73 59.19 33.68 59.21 33.64 59.19L28.95 55.58C28.91 55.55 28.86 55.53 28.8 55.53L27.4 55.53C27.37 55.53 27.34 55.56 27.34 55.59L27.34 60.54C27.34 60.57 27.37 60.6 27.4 60.6L28.82 60.6C28.86 60.6 28.88 60.57 28.88 60.54L28.88 56.99C28.88 56.94 28.94 56.92 28.98 56.94L33.66 60.55C33.71 60.58 33.76 60.6 33.81 60.6L35.21 60.6C35.25 60.6 35.27 60.57 35.27 60.54L35.27 55.59C35.27 55.56 35.25 55.53 35.21 55.53Z" fill="#FFFFFF" fill-opacity="1.000000" fill-rule="nonzero"/>
			<path id="Vector" d="M45 60.54L41.6 57.79C41.57 57.76 41.57 57.71 41.61 57.69L44.99 55.6C45.02 55.58 45.01 55.54 44.97 55.54L43.24 55.54C43.18 55.54 43.12 55.55 43.07 55.59L39.38 57.86C39.34 57.89 39.28 57.86 39.28 57.81L39.28 55.6C39.28 55.57 39.26 55.54 39.22 55.54L37.8 55.54C37.77 55.54 37.74 55.57 37.74 55.6L37.74 60.55C37.74 60.58 37.77 60.61 37.8 60.61L39.22 60.61C39.26 60.61 39.28 60.58 39.28 60.55L39.28 59.19C39.28 59.15 39.3 59.11 39.34 59.09L40.54 58.35C40.58 58.33 40.64 58.33 40.67 58.36L43.36 60.54C43.42 60.59 43.49 60.62 43.57 60.62L44.97 60.62C45.01 60.6 45.03 60.56 45 60.54Z" fill="#FFFFFF" fill-opacity="1.000000" fill-rule="nonzero"/>
		</g>
	</g>
</svg>
