<svg width="17.666748" height="17.666656" viewBox="0 0 17.6667 17.6667" fill="none" xmlns="http://www.w3.org/2000/svg" xmlns:xlink="http://www.w3.org/1999/xlink">
	<desc>
			Created with Pixso.
	</desc>
	<defs/>
	<path id="Icon" d="M8.83 11.33C7.45 11.33 6.33 10.21 6.33 8.83C6.33 7.45 7.45 6.33 8.83 6.33C10.21 6.33 11.33 7.45 11.33 8.83C11.33 10.21 10.21 11.33 8.83 11.33ZM14.35 11.83C14.39 12.07 14.51 12.3 14.68 12.48L14.73 12.53C14.87 12.67 14.98 12.83 15.06 13.02C15.13 13.2 15.17 13.4 15.17 13.6C15.17 13.8 15.13 13.99 15.06 14.18C14.98 14.36 14.87 14.53 14.73 14.67C14.59 14.81 14.42 14.92 14.24 15C14.05 15.07 13.86 15.11 13.66 15.11C13.46 15.11 13.26 15.07 13.08 15C12.89 14.92 12.73 14.81 12.59 14.67L12.54 14.62C12.36 14.45 12.14 14.33 11.89 14.29C11.64 14.24 11.39 14.27 11.16 14.37C10.94 14.47 10.75 14.63 10.61 14.83C10.48 15.04 10.41 15.27 10.4 15.52L10.4 15.65C10.4 16.05 10.24 16.43 9.96 16.72C9.68 17 9.29 17.16 8.89 17.16C8.49 17.16 8.1 17 7.82 16.72C7.53 16.43 7.37 16.05 7.37 15.65L7.37 15.58C7.37 15.33 7.29 15.08 7.14 14.88C7 14.68 6.79 14.52 6.56 14.43C6.33 14.33 6.07 14.3 5.83 14.35C5.58 14.39 5.36 14.51 5.18 14.68L5.13 14.73C4.99 14.87 4.82 14.98 4.64 15.06C4.46 15.14 4.26 15.17 4.06 15.17C3.86 15.17 3.66 15.14 3.48 15.06C3.3 14.98 3.13 14.87 2.99 14.73C2.85 14.59 2.73 14.42 2.66 14.24C2.58 14.05 2.54 13.86 2.54 13.66C2.54 13.46 2.58 13.26 2.66 13.08C2.73 12.89 2.85 12.73 2.99 12.59L3.03 12.54C3.21 12.36 3.32 12.14 3.37 11.89C3.41 11.64 3.38 11.39 3.28 11.16C3.19 10.94 3.03 10.75 2.82 10.61C2.62 10.48 2.38 10.41 2.14 10.4L2.01 10.4C1.61 10.4 1.22 10.24 0.94 9.96C0.65 9.68 0.5 9.29 0.5 8.89C0.5 8.49 0.65 8.1 0.94 7.82C1.22 7.53 1.61 7.37 2.01 7.37L2.08 7.37C2.33 7.37 2.57 7.29 2.78 7.14C2.98 6.99 3.14 6.79 3.22 6.56C3.32 6.33 3.35 6.07 3.31 5.83C3.26 5.58 3.15 5.36 2.97 5.18L2.93 5.13C2.79 4.99 2.67 4.82 2.6 4.64C2.52 4.46 2.48 4.26 2.48 4.06C2.48 3.86 2.52 3.66 2.6 3.48C2.67 3.3 2.79 3.13 2.93 2.99C3.07 2.85 3.23 2.73 3.42 2.66C3.6 2.58 3.8 2.54 4 2.54C4.2 2.54 4.4 2.58 4.58 2.66C4.76 2.73 4.93 2.85 5.07 2.99L5.12 3.03C5.29 3.21 5.52 3.32 5.77 3.37C6.01 3.41 6.27 3.38 6.5 3.28L6.56 3.28C6.78 3.19 6.97 3.03 7.11 2.82C7.24 2.62 7.31 2.38 7.31 2.14L7.31 2.01C7.31 1.61 7.47 1.22 7.76 0.94C8.04 0.65 8.43 0.5 8.83 0.5C9.23 0.5 9.62 0.65 9.9 0.94C10.18 1.22 10.34 1.61 10.34 2.01L10.34 2.08C10.34 2.32 10.42 2.56 10.55 2.76C10.69 2.97 10.88 3.13 11.1 3.22C11.33 3.32 11.58 3.35 11.83 3.31C12.07 3.26 12.3 3.15 12.48 2.97L12.53 2.93C12.67 2.79 12.83 2.67 13.02 2.6C13.2 2.52 13.4 2.48 13.6 2.48C13.8 2.48 13.99 2.52 14.18 2.6C14.36 2.67 14.53 2.79 14.67 2.93C14.81 3.07 14.92 3.23 15 3.42C15.07 3.6 15.11 3.8 15.11 4C15.11 4.2 15.07 4.4 15 4.58C14.92 4.76 14.81 4.93 14.67 5.07L14.62 5.12C14.45 5.29 14.33 5.52 14.29 5.77C14.24 6.01 14.27 6.27 14.37 6.5L14.37 6.56C14.47 6.78 14.63 6.97 14.83 7.11C15.04 7.24 15.27 7.31 15.52 7.31L15.65 7.31C16.05 7.31 16.43 7.47 16.72 7.76C17 8.04 17.16 8.43 17.16 8.83C17.16 9.23 17 9.62 16.72 9.9C16.43 10.18 16.05 10.34 15.65 10.34L15.58 10.34C15.33 10.34 15.1 10.42 14.89 10.55C14.69 10.69 14.53 10.88 14.43 11.1C14.33 11.33 14.3 11.58 14.35 11.83Z" stroke="#FF9549" stroke-opacity="1.000000" stroke-width="1.000000" stroke-linejoin="round"/>
</svg>
