<svg width="20.000000" height="20.000000" viewBox="0 0 20 20" fill="none" xmlns="http://www.w3.org/2000/svg" xmlns:xlink="http://www.w3.org/1999/xlink">
	<desc>
			Created with Pixso.
	</desc>
	<defs>
		<clipPath id="clip5_419">
			<rect id="phone-incoming-01" rx="-0.500000" width="19.000000" height="19.000000" transform="translate(0.500000 0.500000)" fill="white" fill-opacity="0"/>
		</clipPath>
	</defs>
	<g style="mix-blend-mode:normal">
		<g clip-path="url(#clip5_419)">
			<path id="Icon" d="M12.49 3.33L12.49 7.5L16.66 7.5M17.49 2.5L12.49 7.5M6.15 8.21C6.1 8.1 6.07 8.05 6.05 7.98C5.98 7.75 6.03 7.46 6.17 7.27C6.21 7.21 6.26 7.16 6.36 7.07C6.65 6.78 6.79 6.63 6.89 6.48C7.25 5.93 7.25 5.22 6.89 4.67C6.79 4.52 6.65 4.37 6.36 4.08L6.19 3.92C5.75 3.48 5.53 3.26 5.29 3.14C4.82 2.9 4.26 2.9 3.79 3.14C3.55 3.26 3.33 3.48 2.89 3.92L2.75 4.05C2.31 4.49 2.09 4.71 1.92 5.01C1.74 5.35 1.6 5.86 1.6 6.25C1.6 6.59 1.67 6.83 1.8 7.3C2.52 9.82 3.88 12.21 5.87 14.2C7.86 16.19 10.24 17.54 12.77 18.26C13.24 18.39 13.47 18.46 13.82 18.46C14.2 18.46 14.72 18.33 15.05 18.14C15.35 17.97 15.57 17.75 16.01 17.31L16.14 17.18C16.59 16.74 16.81 16.52 16.93 16.28C17.17 15.8 17.17 15.25 16.93 14.77C16.81 14.54 16.59 14.31 16.14 13.87L15.98 13.71C15.69 13.42 15.54 13.27 15.4 13.18C14.85 12.82 14.13 12.82 13.58 13.18C13.43 13.27 13.29 13.42 13 13.71C12.9 13.8 12.85 13.85 12.8 13.89C12.6 14.03 12.31 14.08 12.08 14.01C12.01 13.99 11.96 13.97 11.86 13.92C10.65 13.34 9.52 12.55 8.52 11.55C7.52 10.55 6.72 9.41 6.15 8.21Z" stroke="#181818" stroke-opacity="1.000000" stroke-width="1.500000" stroke-linejoin="round"/>
		</g>
	</g>
</svg>
