<svg width="30.000000" height="30.000000" viewBox="0 0 30 30" fill="none" xmlns="http://www.w3.org/2000/svg" xmlns:xlink="http://www.w3.org/1999/xlink">
	<desc>
			Created with Pixso.
	</desc>
	<defs>
		<clipPath id="clip8_4664">
			<rect id="tag-01" width="30.000000" height="30.000000" fill="white" fill-opacity="0"/>
		</clipPath>
	</defs>
	<g clip-path="url(#clip8_4664)">
		<path id="Icon" d="M24.5 13.25C25.99 14.74 26.73 15.48 27.01 16.34C27.25 17.09 27.25 17.9 27.01 18.65C26.73 19.51 25.99 20.25 24.5 21.74L21.74 24.5C20.25 25.99 19.51 26.73 18.65 27.01C17.9 27.25 17.09 27.25 16.34 27.01C15.48 26.73 14.74 25.99 13.25 24.5L3.67 14.92C3.23 14.48 3.02 14.27 2.86 14.02C2.73 13.79 2.63 13.55 2.56 13.29C2.5 13.01 2.5 12.7 2.5 12.09L2.5 6.5C2.5 5.09 2.5 4.39 2.77 3.86C3.01 3.39 3.39 3.01 3.86 2.77C4.39 2.5 5.09 2.5 6.5 2.5L12.09 2.5C12.7 2.5 13.01 2.5 13.29 2.56C13.55 2.63 13.79 2.73 14.02 2.86C14.27 3.02 14.48 3.23 14.92 3.67L24.5 13.25ZM10 10L10.01 10M10 10.62C9.65 10.62 9.37 10.34 9.37 10C9.37 9.65 9.65 9.37 10 9.37C10.34 9.37 10.62 9.65 10.62 10C10.62 10.34 10.34 10.62 10 10.62Z" stroke="#FF9549" stroke-opacity="1.000000" stroke-width="1.500000" stroke-linejoin="round" stroke-linecap="round"/>
	</g>
</svg>
