<svg width="30.000000" height="30.000000" viewBox="0 0 30 30" fill="none" xmlns="http://www.w3.org/2000/svg" xmlns:xlink="http://www.w3.org/1999/xlink">
	<desc>
			Created with Pixso.
	</desc>
	<defs>
		<clipPath id="clip8_4654">
			<rect id="clipboard-check" width="30.000000" height="30.000000" fill="white" fill-opacity="0"/>
		</clipPath>
	</defs>
	<g clip-path="url(#clip8_4654)">
		<path id="Icon" d="M20 5C21.16 5 21.74 5 22.22 5.12C23.51 5.47 24.52 6.48 24.87 7.77C25 8.25 25 8.83 25 10L25 21.5C25 23.6 25 24.65 24.59 25.45C24.23 26.15 23.65 26.73 22.95 27.09C22.15 27.5 21.1 27.5 19 27.5L11 27.5C8.89 27.5 7.84 27.5 7.04 27.09C6.34 26.73 5.76 26.15 5.4 25.45C5 24.65 5 23.6 5 21.5L5 10C5 8.83 5 8.25 5.12 7.77C5.47 6.48 6.48 5.47 7.77 5.12C8.25 5 8.83 5 10 5M18 2.5C18.7 2.5 19.04 2.5 19.31 2.63C19.55 2.75 19.74 2.94 19.86 3.18C20 3.44 20 3.79 20 4.5L20 5.5C20 6.2 20 6.55 19.86 6.81C19.74 7.05 19.55 7.24 19.31 7.36C19.04 7.5 18.7 7.5 18 7.5L12 7.5C11.29 7.5 10.95 7.5 10.68 7.36C10.44 7.24 10.25 7.05 10.13 6.81C10 6.55 10 6.2 10 5.5L10 4.5C10 3.79 10 3.44 10.13 3.18C10.25 2.94 10.44 2.75 10.68 2.63C10.95 2.5 11.29 2.5 12 2.5L18 2.5ZM11.25 18.75L13.75 21.25L19.37 15.62" stroke="#FF9549" stroke-opacity="1.000000" stroke-width="1.500000" stroke-linejoin="round"/>
	</g>
</svg>
