<svg width="30.000000" height="30.000000" viewBox="0 0 30 30" fill="none" xmlns="http://www.w3.org/2000/svg" xmlns:xlink="http://www.w3.org/1999/xlink">
	<desc>
			Created with Pixso.
	</desc>
	<defs>
		<clipPath id="clip8_4669">
			<rect id="sale" width="30.000000" height="30.000000" fill="white" fill-opacity="0"/>
		</clipPath>
	</defs>
	<g clip-path="url(#clip8_4669)">
		<path id="Ellipse 685" d="M12.5 11.25C12.5 11.94 11.94 12.5 11.25 12.5C10.55 12.5 10 11.94 10 11.25C10 10.55 10.55 10 11.25 10C11.94 10 12.5 10.55 12.5 11.25Z" fill="#FF9549" fill-opacity="1.000000" fill-rule="evenodd"/>
		<path id="Ellipse 686" d="M20 18.75C20 19.44 19.44 20 18.75 20C18.05 20 17.5 19.44 17.5 18.75C17.5 18.05 18.05 17.5 18.75 17.5C19.44 17.5 20 18.05 20 18.75Z" fill="#FF9549" fill-opacity="1.000000" fill-rule="evenodd"/>
		<path id="Star 6" d="M18.28 4.04C18.88 4.56 19.63 4.87 20.41 4.93L21.53 5.02C23.37 5.16 24.83 6.62 24.97 8.46L25.06 9.58C25.12 10.36 25.43 11.11 25.95 11.71L26.67 12.56C27.87 13.96 27.87 16.03 26.67 17.43L25.95 18.28C25.43 18.88 25.12 19.63 25.06 20.41L24.97 21.53C24.83 23.37 23.37 24.83 21.53 24.97L20.41 25.06C19.63 25.12 18.88 25.43 18.28 25.95L17.43 26.67C16.03 27.87 13.96 27.87 12.56 26.67L11.71 25.95C11.11 25.43 10.36 25.12 9.58 25.06L8.46 24.97C6.62 24.83 5.16 23.37 5.02 21.53L4.93 20.41C4.87 19.63 4.56 18.88 4.05 18.28L3.32 17.43C2.12 16.03 2.12 13.96 3.32 12.56L4.05 11.71C4.56 11.11 4.87 10.36 4.93 9.58L5.02 8.46C5.16 6.62 6.62 5.16 8.46 5.02L9.58 4.93C10.36 4.87 11.11 4.56 11.71 4.04L12.56 3.32C13.96 2.12 16.03 2.12 17.43 3.32L18.28 4.04Z" stroke="#FF9549" stroke-opacity="1.000000" stroke-width="1.500000"/>
		<path id="Vector 1887" d="M11.25 18.75L18.75 11.25" stroke="#FF9549" stroke-opacity="1.000000" stroke-width="1.500000" stroke-linecap="round"/>
	</g>
</svg>
