<svg width="44.000000" height="44.000000" viewBox="0 0 44 44" fill="none" xmlns="http://www.w3.org/2000/svg" xmlns:xlink="http://www.w3.org/1999/xlink">
	<desc>
			Created with Pixso.
	</desc>
	<defs>
		<clipPath id="clip3_3686">
			<rect id="award-03" width="44.000000" height="44.000000" fill="white" fill-opacity="0"/>
		</clipPath>
	</defs>
	<g clip-path="url(#clip3_3686)">
		<path id="Icon" d="M14.42 28.34L12.83 40.33L21.24 35.28C21.51 35.12 21.65 35.03 21.8 35C21.93 34.97 22.06 34.97 22.19 35C22.34 35.03 22.48 35.12 22.75 35.28L31.16 40.33L29.57 28.33M31.62 9.3L34.02 10.29C34.7 10.58 35.25 11.12 35.53 11.8C35.82 12.49 35.82 13.26 35.53 13.94L34.54 16.34C34.26 17.03 34.25 17.8 34.54 18.48L35.53 20.88C35.67 21.22 35.74 21.58 35.74 21.95C35.74 22.32 35.67 22.68 35.53 23.02C35.39 23.36 35.19 23.67 34.93 23.93C34.67 24.19 34.36 24.39 34.02 24.53L31.62 25.53C30.94 25.81 30.39 26.35 30.11 27.04L29.11 29.44C28.83 30.12 28.29 30.67 27.6 30.95C26.92 31.23 26.15 31.23 25.46 30.95L23.06 29.96C22.38 29.67 21.61 29.67 20.93 29.96L18.53 30.95C17.84 31.23 17.07 31.23 16.39 30.95C15.7 30.67 15.16 30.12 14.88 29.44L13.88 27.04C13.6 26.35 13.06 25.81 12.37 25.52L9.97 24.53C9.29 24.25 8.74 23.7 8.46 23.02C8.18 22.33 8.18 21.56 8.46 20.88L9.45 18.48C9.73 17.8 9.73 17.03 9.45 16.34L8.46 13.94C8.32 13.6 8.25 13.24 8.25 12.87C8.25 12.51 8.32 12.14 8.46 11.8C8.6 11.46 8.8 11.15 9.06 10.9C9.32 10.64 9.63 10.43 9.97 10.29L12.37 9.3C13.05 9.01 13.6 8.47 13.88 7.79L14.88 5.39C15.16 4.7 15.7 4.16 16.39 3.87C17.07 3.59 17.84 3.59 18.53 3.87L20.93 4.87C21.61 5.15 22.38 5.15 23.06 4.87L25.46 3.88C26.15 3.59 26.92 3.59 27.6 3.88C28.29 4.16 28.83 4.7 29.12 5.39L30.11 7.79L30.11 7.78C30.39 8.47 30.94 9.01 31.62 9.3Z" stroke="#FFFFFF" stroke-opacity="1.000000" stroke-width="2.000000" stroke-linejoin="round" stroke-linecap="round"/>
	</g>
</svg>
