<svg width="44.000000" height="44.000000" viewBox="0 0 44 44" fill="none" xmlns="http://www.w3.org/2000/svg" xmlns:xlink="http://www.w3.org/1999/xlink">
	<desc>
			Created with Pixso.
	</desc>
	<defs>
		<clipPath id="clip3_3700">
			<rect id="clipboard-check" width="44.000000" height="44.000000" fill="white" fill-opacity="0"/>
		</clipPath>
	</defs>
	<g clip-path="url(#clip3_3700)">
		<path id="Icon" d="M29.33 7.33C31.03 7.33 31.89 7.33 32.59 7.52C34.48 8.02 35.97 9.51 36.47 11.4C36.66 12.1 36.66 12.96 36.66 14.66L36.66 31.53C36.66 34.61 36.66 36.15 36.06 37.33C35.54 38.36 34.69 39.2 33.66 39.73C32.48 40.33 30.94 40.33 27.86 40.33L16.13 40.33C13.05 40.33 11.51 40.33 10.33 39.73C9.3 39.2 8.46 38.36 7.93 37.33C7.33 36.15 7.33 34.61 7.33 31.53L7.33 14.66C7.33 12.96 7.33 12.1 7.52 11.4C8.02 9.51 9.51 8.02 11.4 7.52C12.1 7.33 12.96 7.33 14.66 7.33M26.4 3.66C27.42 3.66 27.94 3.66 28.33 3.86C28.67 4.04 28.95 4.32 29.13 4.66C29.33 5.05 29.33 5.57 29.33 6.59L29.33 8.06C29.33 9.09 29.33 9.6 29.13 9.99C28.95 10.34 28.67 10.62 28.33 10.8C27.94 10.99 27.42 10.99 26.4 10.99L17.6 10.99C16.57 10.99 16.06 10.99 15.66 10.8C15.32 10.62 15.04 10.34 14.86 9.99C14.66 9.6 14.66 9.09 14.66 8.06L14.66 6.59C14.66 5.57 14.66 5.05 14.86 4.66C15.04 4.32 15.32 4.04 15.66 3.86C16.06 3.66 16.57 3.66 17.6 3.66L26.4 3.66ZM16.5 27.49L20.16 31.16L28.41 22.91" stroke="#FFFFFF" stroke-opacity="1.000000" stroke-width="2.000000" stroke-linejoin="round"/>
	</g>
</svg>
